<svg width="24" height="24" viewBox="0 0 24 24" fill="none" xmlns="http://www.w3.org/2000/svg">
<g clip-path="url(#clip0_474_7676)">
<path d="M23.087 5.54534L12.489 0.175485L12.4846 0.173282C12.0127 -0.0616555 11.452 -0.0564055 10.9845 0.187345L6.43913 2.59972C6.40219 2.61538 6.3667 2.63436 6.33272 2.6562L0.88575 5.54708C0.339375 5.83316 0 6.39369 0 7.01061V16.9894C0 17.6063 0.339375 18.1668 0.88575 18.4529L10.98 23.8103L10.9846 23.8127C11.2205 23.9355 11.4826 23.9995 11.7485 23.9993C12.0039 23.9995 12.2559 23.9404 12.4846 23.8267L23.087 18.4547C23.6502 18.173 24 17.6071 24 16.9772V7.02285C24 6.39289 23.6502 5.82697 23.087 5.54534ZM11.6361 1.43295C11.6702 1.41553 11.7079 1.40628 11.7462 1.40593C11.7844 1.40559 11.8223 1.41417 11.8567 1.43099L21.7768 6.45739L17.916 8.3795L8.21756 3.2473L11.6361 1.43295ZM11.0355 22.2483L1.54266 17.21L1.53811 17.2077C1.49815 17.1869 1.46467 17.1556 1.44132 17.1171C1.41798 17.0786 1.40567 17.0344 1.40573 16.9894V7.64492L11.0355 12.6664V22.2483ZM11.7458 11.4514L2.169 6.45753L6.717 4.0438L16.3674 9.1505L11.7458 11.4514ZM22.5942 16.9771C22.5944 17.023 22.5817 17.0679 22.5575 17.1069C22.5334 17.1459 22.4988 17.1773 22.4577 17.1976L12.4413 22.2728V12.6754L17.0531 10.3794V12.7866C17.0531 13.1748 17.3678 13.4895 17.756 13.4895C18.1442 13.4895 18.4589 13.1748 18.4589 12.7866V9.67949L22.5942 7.62074V16.9771Z" fill="#767DA5"/>
</g>
<defs>
<clipPath id="clip0_474_7676">
<rect width="24" height="24" fill="white"/>
</clipPath>
</defs>
</svg>
