<svg xmlns="http://www.w3.org/2000/svg" width="804" height="159"><path fill="#FCF9F7" d="m184 28-.71 2.724c-2.767 10.762-5.125 21.592-7.382 32.47q-.903 4.345-1.816 8.687-.584 2.796-1.166 5.592l-.543 2.588c-.958 4.635-1.77 9.246-2.383 13.939 4.79.234 4.79.234 9-2l.438-1.75c.818-3.273 2.555-5.574 4.562-8.25h2c.26-.669.52-1.338.79-2.027 1.164-2.86 2.41-5.677 3.673-8.494 3.294-7.37 6.18-14.747 8.537-22.479 6.12-1.405 11.717-2.233 18-2 .66 5.331 1.056 10.562 1 15.938-.052 5.746.371 11.353 1 17.062.095.887.19 1.774.29 2.688q.347 3.156.71 6.312c2.539-1.047 2.539-1.047 5-3 1.121-3.042 1.121-3.042 1.563-6.625q.339-2.014.687-4.027l.355-2.137c.684-3.83 1.568-7.611 2.458-11.398l.492-2.177c.83-3.55 1.798-6.342 3.445-9.636h15c0 5.15-.173 8.623-1.277 13.457l-.807 3.623-.853 3.733c-1.834 8.054-3.52 15.93-4.063 24.187 2.873.052 2.873.052 6-1 3.418-4.994 4.933-9.68 6.14-15.559l.522-2.391c.54-2.494 1.064-4.99 1.588-7.487q.549-2.555 1.102-5.108c.897-4.149 1.772-8.301 2.648-12.455l16-1c1.083 3.25.926 4.281.211 7.531l-.597 2.771-.669 2.983c-.22 1.012-.442 2.024-.67 3.067q-.702 3.21-1.417 6.418-1.093 4.922-2.167 9.85l-1.37 6.228-.657 2.989-.617 2.76-.54 2.436C267 99 267 99 266 101l3.25-1.625 1.828-.914c5.712-4.342 6.99-10.52 8.422-17.148l.628-2.761a914 914 0 0 0 4.616-21.773c1.15-5.674 1.15-5.674 2.256-6.779 2.697-.073 5.367-.092 8.063-.062l2.298.013q2.82.02 5.639.049l1 3 1.602-1.46C310.216 48.577 315.75 49.05 321 50c2.715 1.953 4.377 4.094 6 7l1.293-1.531c4.21-4.376 7.247-6.023 13.394-6.219 6.722.358 6.722.358 9.563 3.125 3.896 5.844 3.572 12.007 2.353 18.854a261 261 0 0 1-2.18 9.45C350.382 84.895 349.777 88.617 350 93c2.293.86 2.293.86 5 1 3.859-2.724 5.75-6.54 7-11a220 220 0 0 0 1.473-10.695C364 69 364 69 364.94 66.769c1.299-3.393 1.914-6.81 2.54-10.37q.42-2.212.842-4.422c.439-2.307.867-4.613 1.27-6.926.392-2.245.824-4.48 1.263-6.715l.336-2.093c.403-1.952.403-1.952 1.809-5.243 4.416-2.49 7.899-3.374 12.938-3.187l2.902.082L391 28l-.367 1.788q-.82 4.012-1.633 8.025l-.578 2.814-.547 2.705-.508 2.491c-.45 2.302-.45 2.302-.367 5.177l1-1c10.404-1.117 10.404-1.117 15.125 2.188 5.698 8.546 5.08 19.562 3.188 29.378-3.11 10.147-8.9 17.638-18.032 23.043-3.809 1.615-6.655 1.824-10.781 1.829l-3.844.058c-5.426-.736-9.042-3.48-12.656-7.496l-1.46 1.277-1.915 1.66-1.898 1.653c-4.5 3.675-10.19 2.95-15.727 2.41-3.617-2.026-5.654-4.075-7-8-1.298-5.972-.553-10.51.875-16.312l.566-2.456c1.38-5.873 1.38-5.873 2.559-8.232.07-1.54.085-3.083.063-4.625l-.028-2.477L337 62c-1.895-.637-1.895-.637-4-1-8.092 5.64-8.739 19.403-10.625 28.438q-.698 3.328-1.407 6.655a1836 1836 0 0 0-1.26 5.983C319 105 319 105 318 106c-2.697.073-5.367.092-8.062.063l-2.3-.014q-2.818-.02-5.638-.049c1.204-9.36 3.13-18.495 5.235-27.688 1.3-5.774 2.225-11.417 2.765-17.312-4.149.293-4.149.293-7.547 2.445-2.186 3.844-2.944 7.885-3.89 12.18l-.642 2.796c-1.06 4.638-2.077 9.284-3.097 13.93l-.55 2.506a795 795 0 0 0-1.018 4.72c-1.148 5.315-1.148 5.315-2.256 6.423-2.697.073-5.367.092-8.062.063l-2.3-.014q-2.818-.02-5.638-.049l-1-3-2.812 1.5C268 106 268 106 265 106l-.297 2.344c-1.384 9.64-3.668 17.565-11.703 23.656-4.379 2.05-8.196 2.429-13 2-3.496-1.412-6.897-2.79-9-6-1.226-4.903-1.42-6.969.5-11.687 3.955-5.967 10.014-8.798 16.5-11.313l-1-1-1.629.973c-4.566 1.978-9.506 1.666-14.371 1.027-4.784-3.157-5.845-6.644-7-12-7.307 4.6-7.307 4.6-14.5 9.375-5.864 3.811-12.745 3.207-19.5 2.625-2.664-1.022-3.858-2.032-6-4l-3-2-2.25 1.875c-5.317 4.109-9.21 4.63-15.895 4.5C160 106 160 106 156.875 103.938c-5.059-7.926-4.07-15.501-2.133-24.313.715-2.887 1.463-5.76 2.258-8.625l-9 2-.008 1.984C147.56 85.185 143.458 94.897 136 102c-6.485 5.042-14.108 4.93-22 4-4.288-1.848-7.123-4.408-9.312-8.613-2.302-7.989-1.194-16.61 1.312-24.387h-6l.648 2.578c.749 7.286-3.649 14.665-7.843 20.45-4.72 5.448-8.82 9.47-16.243 10.406-9.55.01-9.55.01-14.124-1.996C59.49 101.49 57.28 98.488 55 95l-1.723 1.645c-8.637 8.003-14.128 9.683-25.656 9.753-4.493-.494-8.053-1.547-11.047-5.082-4.564-9.028-4.14-17.28-1.601-27.066C18.708 63.104 23.425 55.557 34 50c5.667-1.889 12.556-1.998 18.063.25 3.257 2.943 3.834 4.807 4.312 9.188-.44 4.184-1.25 5.774-4.375 8.562-2.75.313-2.75.313-5 0-.982-4.053-1.082-7.839-1-12-3.645.86-5.54 1.388-7.828 4.434-2.906 6.14-4.95 11.73-5.848 18.484C32 81 32 81 31 82a60 60 0 0 0-.125 4.313l-.008 2.363c.128 2.237.514 4.177 1.133 6.324 8.604.57 14.454-.226 21.164-5.797 2.23-2.676 2.436-4.266 2.773-7.703C57.618 69.805 62.19 60.951 71 53c3.496-2.455 4.604-3 9-3l1-2c13.044 1.108 13.044 1.108 16.188 4.5 2.285 4.413 3.163 8.602 3.812 13.5 1.46-.06 2.918-.149 4.375-.25l2.46-.14c2.307-.384 2.307-.384 3.247-2.403L112 61c4.398-5.772 8.668-10.5 16-12 11.398-.883 11.398-.883 16 3l1.52 1.25c1.972 2.331 2.439 4.487 3.167 7.438l.762 3.011L150 66l2-1a225 225 0 0 1 6-1l.411-1.83q1.631-7.245 3.3-14.483c.745-3.242 1.46-6.48 2.078-9.75 1.513-7.436 1.513-7.436 4.649-9.687 5.199-.365 10.354-.38 15.562-.25M81.297 59.219C73.716 69.63 72.29 80.427 73 93c.806 2.13.806 2.13 2.75 2.813 3.391.282 4.603-.683 7.25-2.813 3.81-4.75 5.537-8.867 6-15l.813-2.562c.284-3.7-1.627-5.59-3.813-8.438h2c1.88-2.161 1.88-2.161 3-5-.4-2.792-.4-2.792-2-5-3.411-2.117-5.208-.554-7.703 2.219m48.258-.028c-7.022 8.17-9.037 19.973-8.89 30.41.171 2.628.171 2.628 2.335 5.087L125 96c4.72-1.348 7.464-3.896 10-8 2.195-4.888 3.613-9.603 3-15l-1.125-2.562C136 68 136 68 136.813 65.438L138 63c.805-2.05.805-2.05 1-4l-2-3c-3.481 0-4.868.928-7.445 3.191m255.288.488c-2.035 2.563-2.655 4.28-3.327 7.462l-.645 2.996-.621 3.113-.668 3.066C378.406 81.95 377.443 87.248 378 93c2.798 2.253 2.798 2.253 5.875 2.063 5.11-1.738 6.727-5.34 9.102-9.965 2.067-5.035 2.356-10.034 2.46-15.41l.068-2.104c-.015-3.381-.295-5.29-2.282-8.064-3.218-2.2-5.29-2.247-8.38.159M199 65l-7 17 2 2c-.375 2.625-.375 2.625-1 5l-6 2c.344 2.473.344 2.473 1 5 2.82 1.41 4.87 1.245 8 1 3.712-1.765 3.712-1.765 6-5 .393-9.034-.063-18.012-1-27zm40 51c-2.307 2.715-2.307 2.715-1.625 5.188L238 123l4 1c3.291-3.61 4.547-6.126 5-11-3.633 0-5.047.956-8 3M652 28c-.654 7.174-1.98 14.05-3.54 21.078l-1.507 6.953q-1.184 5.436-2.384 10.87c-.774 3.515-1.535 7.033-2.296 10.552l-.735 3.283-.658 3.066-.59 2.683c-.317 2.746.03 4.85.71 7.515 2.343-.256 4.678-.593 7-1l1-2h2l.148-1.687c.452-4.607 1.178-8.94 2.383-13.407.57-2.174.57-2.174.969-5.531.496-3.346 1.432-6.172 2.5-9.375a284 284 0 0 0 1.535-7.926C659 51 659 51 660 50a226 226 0 0 1 8.063-.562l2.298-.131q2.82-.159 5.639-.307c-.41 9.287-2.46 18.084-4.56 27.098-.94 4.071-1.614 8.053-2.003 12.215l-.253 2.675L669 93c3.287.8 4.71 1.097 8 0 4.02-7.37 5.666-16.21 6.563-24.5.404-3.234 1.228-5.517 2.437-8.5v-2.5c0-2.5 0-2.5 2-7.5h17l1 3 1.629-1.473c4.353-2.804 9.38-2.129 14.371-1.527 4 2.041 5.823 4.678 7.539 8.822.968 4.572-.633 9.06-1.789 13.49-1.798 7.244-3.238 14.23-3.75 21.688h8c1.814-4.143 2.86-8.361 3.875-12.75C738.879 68.808 743.449 58.825 754 51c5.262-2.69 11.204-2.592 17-2 3.08 1.383 4.638 2.638 7 5 1.599 6.027.718 10.536-2 16-4.176 6.443-9.712 10.563-17 13-2.805.125-2.805.125-5 0l-.125 3.75-.07 2.11c.223 2.442.986 4.026 2.195 6.14 9.651.515 14.836-1.632 22-8a97 97 0 0 0 3-3l3 1c-4.396 9.386-11.095 15.6-20.309 20.137-3.45 1.107-6.508 1.202-10.129 1.238l-3.87.086c-6.01-.75-9.675-4.135-13.692-8.461l-1.687 2.313c-3.028 3.518-5.58 5.407-10.215 6.156-9.204.095-9.204.095-12.785-2.844C706.398 98.046 707.699 91.063 708 84c.454-3.129 1.148-5.943 2-9 .857-3.083 1.269-6.064 1.563-9.25l.253-2.703L712 61c-2.867.031-2.867.031-6 1-3.665 4.16-4.42 7.592-5 13l-.863 2.45c-1.664 5.197-2.634 10.514-3.7 15.862q-.652 3.277-1.316 6.551l-.58 2.916C694 105 694 105 693 106c-2.697.073-5.367.092-8.062.063l-2.3-.014q-2.818-.02-5.638-.049l-1-3-2.25 1.5c-4.91 2.437-10.43 2.32-15.75 1.5-3.125-2.375-3.125-2.375-5-5l-2-2-1.426 1.277-1.886 1.66-1.864 1.653c-4.683 3.62-11.213 3.106-16.824 2.41-2.562-1.413-3.335-2.503-5-5v-2l-1.68 1.277-2.195 1.66-2.18 1.653c-4.831 3.502-10.177 3.043-15.945 2.41-3.22-1.2-3.79-2.091-6-5-3.307-8.282-1.515-16.285 1.125-24.5 1.213-4.852 1.037-9.526.875-14.5l-3-1c-4.014 3.559-5.751 6.107-7 11.313l-.464 1.88c-1.825 7.6-3.346 15.28-4.874 22.945l-.611 3.042-.542 2.741C581 105 581 105 580 106c-2.697.073-5.367.092-8.062.063l-2.3-.014q-2.818-.02-5.638-.049c1.35-11.923 4.002-23.402 7-35l-9 2-.187 4.25c-.904 9.074-4.574 18.288-11.63 24.297l-1.745 1.203-1.754 1.234C541.19 107.3 534.162 106.517 528 106c-4.078-1.43-6.762-4.35-9-8-3.178-9.534-1.847-21.582 2.516-30.453 4.316-7.406 9.426-14.018 17.234-17.922 5.763-1.108 11.637-1.626 17.188.5 4.391 3.993 6.259 8.337 8.062 13.875 2.862 1.43 4.934.6 8 0l1-9h2l1-5h16l1 3 1.598-1.469C599.19 48.604 604.762 49.276 610 50c3.554 2.529 4.637 3.912 6 8 .914 7.222-.752 13.847-2.498 20.791C612.232 83.867 611.38 88.77 611 94c4.466.412 4.466.412 8.25-1.75 3.136-4.031 3.987-6.877 4.406-12.055C624 78 624 78 624.97 75.145c1.055-3.219 1.58-6.23 2.031-9.582.68-4.698 1.56-9.048 3-13.563.785-2.705 1.122-5.1 1.438-7.937.386-3.317 1.232-5.986 2.562-9.063.369-1.66.713-3.325 1-5 5.644-2.44 10.978-2.193 17-2M544.5 57.813c-8.116 9.216-9.68 20.336-9.96 32.113.168 3.145.168 3.145 2.327 5.023 2.126 1.317 2.126 1.317 4.633.551 6.417-3.85 8.624-10.556 10.5-17.5.227-3.283.04-4.897-1.187-8-.813-3-.813-3 .625-5.562.515-.805 1.03-1.61 1.562-2.438-.213-2.742-.213-2.742-1-5-3.425-1.272-4.479-1.378-7.5.813m217 .312c-3.905 5.108-5.555 11.833-7.5 17.875 3.005 1.354 3.005 1.354 5.938-.125 4.41-2.7 7.07-6.136 9.062-10.875.24-2.362.24-2.362.125-4.75l-.055-2.422L769 56c-3.57-.612-4.704-.251-7.5 2.125M484.719 27.969l2.998.013c1.13.01 1.13.01 2.283.018-2.176 11.18-4.392 22.348-6.855 33.469l-.476 2.15q-1.162 5.24-2.345 10.477C478.839 80.72 477.564 87.226 477 94c5.856-.14 5.856-.14 10.438-3.375 1.67-2.595 1.67-2.595 2.562-5.625h5l1 2c-.89 2.023-.89 2.023-2.25 4.375l-1.328 2.336c-1.375 2.214-2.734 4.302-4.422 6.289h-2v2c-6.091 4.43-11.56 5.027-19 4-3.815-1.946-4.763-3.567-6.812-7.312-1.937-6.014-1.501-9.973.812-15.688.298-2.304.498-4.597.656-6.914C462 74 462 74 464 71l-9 2-.25 3.875c-1.167 10.441-6.003 19.094-13.969 25.828-6.075 4.423-12.478 4.001-19.781 3.297-2.729-1.009-3.837-1.954-6-4l-1.812-1.562C409.2 95.61 409.496 86.025 410 80c2.56-11.272 8.75-21.409 18.063-28.25C433.71 48.385 439.55 48.463 446 49c3.848 1.603 5.746 3.55 8 7 .73 2.578.73 2.578 1.188 5.25l.48 2.703L456 66l9-2 .586-3.402c3-17.305 3-17.305 4.414-22.598l.578-2.242c1.047-3.42 1.803-5.387 4.922-7.258 3.158-.451 6.037-.55 9.219-.531m-48.422 31.246c-5.798 7.98-8.592 16.771-8.485 26.597l.02 3.958c-.054 3.12-.054 3.12 1.168 5.23 1.77.944 1.77.944 4 1 6.49-3.016 8.444-8.647 11-15 1.226-4.144 1.487-6.984-.437-11L442 68l2.125-2.687c2.22-3.103 2.22-3.103 1.375-6.126-1.325-2.247-1.325-2.247-3.312-3.312-2.821.161-4.033 1.28-5.891 3.34"/><path fill="#FCF8F6" d="M673.063 25.5c3.469 1.772 4.987 3.125 6.937 6.5.612 4.286.505 6.226-1.875 9.875-2.512 2.512-3.419 3.047-6.937 3.438-3.919-.385-5.4-1.606-8.188-4.313-1.41-2.82-1.245-4.87-1-8 2.24-5.068 5.258-8.448 11.063-7.5"/><path fill="#FCF7F6" d="M508 89c2.923 2.558 3.834 4.135 4.563 7.938-.602 3.274-1.59 5.452-3.868 7.917-2.791 1.885-5.308 1.904-8.601 1.657C498 106 498 106 495.438 104c-1.838-3.835-2.528-6.835-1.438-11 4.075-4.992 7.847-6.37 14-4"/><path fill="#FEF1EE" d="M218 80c2.29 3.435 2.178 4.985 2 9l3-1v3h3c1.292 4.12 2.263 7.668 2 12-2.531-2.971-3.348-5.184-4-9l-1.898 1.313L219.625 97l-2.46 1.688C215 100 215 100 213 100c1.049-2.622 1.65-3.794 4.125-5.25L219 94l-1.062-1.937c-1.288-4.206-.629-7.778.062-12.063"/><path fill="#FEF1ED" d="M712 62h1c.327 8.197-.1 15.271-2.32 23.168-1.01 4.207-1.508 8.555-.68 12.832 1.402 1.658 1.402 1.658 3 3 1.188 2.188 1.188 2.188 2 4-3.408-1.41-5.136-2.804-7-6-.88-8.133-.192-16.135 2-24 .798-2.917 1.253-5.742 1.563-8.75l.253-2.422z"/><path fill="#FEEFEB" d="m165 33 2 4-1 1a92 92 0 0 0-.5 4.5c-.389 4.389-.389 4.389-1.5 5.5q-.061 3.5 0 7h-2l1 3c-.996 2.48-.996 2.48-2.437 5.188-.474.9-.947 1.802-1.434 2.73L158 68l-8-1c2.565-2.565 4.477-2.54 8-3l3.047-13.389A3097 3097 0 0 0 165 33"/><path fill="#FEF0EA" d="M20 63c1.564 3.127.16 5.31-.875 8.563l-1.117 3.566C17 78 17 78 16 79a166 166 0 0 0-.187 7.875l-.038 2.223c-.01 3.838.047 5.635 2.225 8.902l-2 2c-4.216-8.433-3.616-17.078-.844-25.98C18.33 64.67 18.33 64.67 20 63"/><path fill="#FEF2EE" d="m490 28-3 15-3-4 1-1.75c1.27-2.449 1.27-2.449 1-6.25l-3.375.125C479 31 479 31 477 29c3.851-1.926 8.8-1.049 13-1"/><path fill="#FDF2EB" d="M18 99c2.193.983 3.77 1.735 5.36 3.566 2.149 1.879 3.271 1.72 6.078 1.559 3.096-.157 5.58-.008 8.562.875v-2l7-3 2 2c-7.256 4.738-14.476 5.03-23 4-3.398-1.34-3.398-1.34-6-3l-1-3z"/><path fill="#FEF0EB" d="M775 51c-3.693 1.231-6.88.872-10.687.563l-2.127-.159Q759.592 51.208 757 51l-1 2a68 68 0 0 1-3.562 2.625l-1.942 1.352L749 58l-2-1c7.546-7.1 18.076-11.87 28-6"/><path fill="#FEF1EF" d="M279 84h1c-.114 1.46-.242 2.917-.375 4.375-.07.812-.14 1.624-.21 2.46C279 93 279 93 277 95c-.643 2.069-.643 2.069-1 4l2 1-6-1v2l4 1c-3.325 1.108-5.622.845-9 0 4-4 4-4 6.063-5.812C276.199 92.646 277.52 88.436 279 84"/><path fill="#FEEEEB" d="M586 72h1c-.67 7.322-2.017 14.38-3.562 21.563l-.71 3.345Q581.87 100.955 581 105h-1q.21-3.47.438-6.937c.08-1.288.162-2.576.246-3.903C581 91 581 91 582 90a330 330 0 0 0 1.5-8.5c1.365-8.365 1.365-8.365 2.5-9.5"/><path fill="#FCF6F0" d="m674 50-1 2-3.812-.25c-2.181-.062-2.181-.062-4.188.25-1.932 1.824-1.932 1.824-3 4l-2 1-2 3c-.25-6.625-.25-6.625 2-10 2.496-.547 2.496-.547 5.438-.75l2.933-.234C671 49 671 49 674 50"/><path fill="#FCF0E9" d="M610 50c2.5 1.445 3.357 2.566 5 5l-1 3a141 141 0 0 1-5-5v-2c-6.606.261-10.75.931-16 5h-2v-2c5.339-5.186 11.887-5.115 19-4"/><path fill="#FEF0EC" d="m781 84 3 1c-1.289 2.875-2.493 5.05-5 7-1.66.364-3.327.7-5 1l-2 2c-2.125-.375-2.125-.375-4-1l3.25-1.687c3.415-1.932 5.426-4.128 7.75-7.313z"/><path fill="#FEF1EE" d="M472 31h1c.221 6.112-.08 11.13-2 17-.507 2.389-.982 4.78-1.437 7.18L469 57l-2 1q.174-2.844.375-5.687c.07-1.056.14-2.112.21-3.2.405-3.035 1.188-5.326 2.415-8.113q.56-2.488 1-5z"/><path fill="#FEF1EB" d="M527 59c1 2 1 2 .328 4.172l-1.078 2.578-1.129 2.707c-1.278 2.9-2.677 5.723-4.121 8.543l-1 3-2-3c1.815-6.484 4.966-12.622 9-18"/><path fill="#FEF0E9" d="m184 28-3 12h-1l1-11-3.687 1c-3.185.803-6.01 1.206-9.313 1v2h-2v-3c5.943-2.641 11.617-2.142 18-2"/><path fill="#FFEFEE" d="m769 99 3 1q-1.903 1.224-3.812 2.438l-2.145 1.37c-4.123 2.405-7.974 2.375-12.606 2.38l-2.076.037c-1.788.005-3.576-.103-5.361-.225l-2-2 3.105.07q2.042.029 4.082.055l2.042.05c4.09.04 7.08-.435 10.771-2.175a104 104 0 0 1 5-1z"/><path fill="#FEF3EF" d="m36 54 7 1-1.207 1.504C38.401 60.853 35.937 64.835 34 70l-2-3 4-8h2v-2l-3-1z"/><path fill="#FEF1EC" d="M292 96h1q-.212 2.22-.437 4.438l-.247 2.496C292 105 292 105 291 106c-2.697.073-5.367.092-8.062.063l-2.3-.014q-2.818-.02-5.638-.049v-3l2 1c2.204.23 4.414.41 6.625.563l3.602.253L290 105l-1-5 3-1z"/><path fill="#FEEFE9" d="M727 68c1.235 3.704.592 5.373-.375 9.125C725.32 82.445 724.462 87.546 724 93h-1c-.562-18.158-.562-18.158 4-25"/><path fill="#FEF2EB" d="M258 123h2c-1.98 4.862-5.147 8.172-9.937 10.313-3.128.702-5.869.84-9.063.687 3-2 3-2 6.813-2.687 4.459-.994 6.327-3.248 8.96-6.852z"/><path fill="#FEF0EB" d="m460 91 2 4 1.625 3.125C465 101 465 101 465 103l8 2v1c-3.59.334-5.533.271-8.687-1.562-2.812-2.964-4.066-5.559-5.313-9.438.313-2.437.313-2.437 1-4"/><path fill="#FEF3F0" d="M147 74h1c-.779 10.558-.779 10.558-3 15l-1-3-3 1c1.125-2.972 2.223-5.334 4-8a155 155 0 0 0 2-5"/><path fill="#FEF0EC" d="m233 51 3 1-2 1 .07 1.898.055 2.477.07 2.46C234 62 234 62 232 64a154 154 0 0 0-2 7h-2q.966-4.157 1.938-8.312l.552-2.381.537-2.295.492-2.11c.419-1.655.941-3.283 1.481-4.902"/><path fill="#FEF3ED" d="m341.438 49.625 3.433-.023c3.346.426 4.772 1.024 7.129 3.398v2l-6-2v-1c-7.057-.15-7.057-.15-14 1 2.662-3.58 5.154-3.404 9.438-3.375"/><path fill="#FEF1EA" d="m618 98 4 2c-7.237 6.136-7.237 6.136-14.125 6.063l-3.32-.028L602 106v-1l2.738-.297 3.574-.453 3.551-.422c3.213-.555 3.213-.555 5.055-2.844C618.08 99.23 618.08 99.23 618 98"/><path fill="#FDF2ED" d="m416 65 3 3-1.312 2.125c-1.703 2.9-3.212 5.854-4.688 8.875l-2-1z"/><path fill="#FEF1ED" d="M158 70c1.033 2.788 1.045 3.868.063 6.75L157 79c-1.082-3.365-.925-4.298 0-8l-9 2v-3c3.283-1.642 6.425-.519 10 0"/><path fill="#FEF1EB" d="M668 85c.976 2.928 1.082 4.956 1 8 3.378.845 5.675 1.108 9 0l-1 4-10-2c-1.312-3.937-.243-6.125 1-10"/><path fill="#FEF0ED" d="M60 67c1.315 4.158.344 6.888-1 11l2 1-4 1v6h-1c-.626-6.888 1.642-12.589 4-19"/><path fill="#FEF1EE" d="M382 62c1.516 3.975.499 7.205-.437 11.25l-.872 3.828L380 80h-1c-1.816-6.809.325-11.65 3-18"/><path fill="#FFEFED" d="M688 50h17v3l-1-2h-15l-1 8c-1.125-1.687-1.125-1.687-2-4z"/><path fill="#FCF2EF" d="M200 61h2v3h2v3h-2v6l2 1-3 3V65l-2-1z"/><path fill="#FEEEE9" d="M106 73c2 3 2 3 1.688 5.125C107 80 107 80 106 81a153 153 0 0 0-.062 6.563l.027 3.628L106 94l-2 1a709 709 0 0 1-.125-7.062l-.07-3.973c.2-4.083.923-7.115 2.195-10.965"/><path fill="#FEEFEA" d="m664 40 9 3c2.19-1.372 2.19-1.372 4-3l2 1c-2.707 2.548-4.333 3.905-8.062 4.438-3.216-.48-4.654-1.154-6.938-3.438z"/><path fill="#FEF0EE" d="M258 60h1l1 8-3 1v8l-2 1c.483-6.205 1.333-12 3-18"/><path fill="#FDF2EB" d="m121 52 1 2-4 4-2.625 2.688C113 63 113 63 111 64c1.37-5.653 5.677-8.511 10-12"/><path fill="#FFF1E7" d="M86 87c.75 1.688.75 1.688 1 4-1.437 2.688-1.437 2.688-4 5-2.733.718-5.15.857-8 1l-1-2 3.25-.187c3.858-.475 3.858-.475 6.125-3.25C84.973 89.138 84.973 89.138 86 87"/><path fill="#FEEFED" d="M364 73c2.187 4.375 2.099 5.207 1.125 9.75l-.617 2.984L364 88h-3z"/><path fill="#FEEEEB" d="m702 64 1 2a155 155 0 0 1-2 5 106 106 0 0 0-1 5l-1 5h-1c-.63-10.976-.63-10.976 2-15.25z"/><path fill="#FDF1EB" d="M627 67c2.104 3.155 2.264 3.56 1.813 7.063l-.231 2.097C628 78 628 78 625 80c0-2.915.409-5.342 1-8.187l.563-2.731z"/><path fill="#FEF0EB" d="M370 45c2 3 2 3 1.723 5.355a269 269 0 0 1-2.286 7.958l-.816 2.675L368 63h-1c.585-6.142 1.54-12.007 3-18"/><path fill="#FEF3EB" d="m400 91 1 2a504 504 0 0 1-3.312 3.938l-1.864 2.214C394 101 394 101 391 102l1-3h2l1-3h2l.938-1.937C399 92 399 92 400 91"/><path fill="#FEEEE9" d="m374 30 3 1q-.932 2.409-1.875 4.813l-1.055 2.707C373 41 373 41 371 44c.514-4.97 1.234-9.29 3-14"/><path fill="#FEF1EB" d="M626 100h2l2 5h11v1c-4.04.286-7.97.456-12 0-2.75-2.5-2.75-2.5-4-5z"/><path fill="#FEEFEF" d="M269 81h1c-.964 9.41-.964 9.41-2 14h-1l-1-10 2-1z"/><path fill="#FEF0E8" d="M722 51c4.258 1.748 5.423 3.913 7.316 7.957.886 2.648.658 4.447-.316 7.043h-1l-1.465-5.957C725.467 55.77 725.467 55.77 722 53z"/><path fill="#FFEFEF" d="M640 79h1a424 424 0 0 1-.375 4.75c-.07.882-.14 1.763-.21 2.672C640 88.99 639.287 90.758 638 93l-2-1 .938-1.5c1.014-2.387 1.34-4.137 1.625-6.687C639 80 639 80 640 79"/><path fill="#FDF3ED" d="M67 57c1 3 1 3 1 5l-3 1c-1.219 2.504-1.219 2.504-2 5l-2-1c1.37-3.995 3.257-6.8 6-10"/><path fill="#FEF0ED" d="m536 51 2 1-2.5 1.813L533 56v3h-2l-1 2v-2l-2-1z"/><path fill="#FDF1ED" d="M435 49c1.77-.054 3.541-.093 5.313-.125l2.988-.07C446 49 446 49 449 51c-1.58.25-3.164.474-4.75.688-1.323.19-1.323.19-2.672.386-3.135-.09-4.296-1-6.578-3.074"/><path fill="#FEF1EC" d="M308 75h1l-.062 2.875c-.164 3.032-.164 3.032 1.062 5.125a101 101 0 0 1-3 6h-1c.964-9.41.964-9.41 2-14"/><path fill="#FEF1E8" d="M657 61h1q-.173 3.188-.375 6.375l-.21 3.586C657 74 657 74 655 76c-1.481-3.851-.383-6.235 1-10 .361-1.66.705-3.326 1-5"/><path fill="#FDF2ED" d="m552 96 2 1c-2.853 2.932-5.65 5.643-9 8l-2-1 1.938-.812c2.393-1.075 2.393-1.075 3.062-4.188 2.063-1.687 2.063-1.687 4-3"/><path fill="#FEF1EE" d="m595 59 5 1 1 9-2 1-.312-3.812c-.337-2.793-.488-3.932-2.25-6.188z"/><path fill="#FEF3E7" d="M295 82h1a424 424 0 0 1-.375 4.75l-.21 2.672C295 91.99 294.287 93.758 293 96a337 337 0 0 1-.125-4.75l-.07-2.672c.204-2.692.83-4.277 2.195-6.578"/><path fill="#FEF5EF" d="M596 83c1.563 1.188 1.563 1.188 3 3-.312 2.688-.312 2.688-1 5l-4-2z"/><path fill="#FEF3EA" d="M669 74h2v8h-3c-.625-2.312-.625-2.312-1-5z"/><path fill="#FDF7FA" d="m192 68 4 1-1 5h-3z"/><path fill="#FDEEEB" d="M249 101h3c-1.875 5.875-1.875 5.875-3 7-1.666.04-3.334.043-5 0l1.938-1.25c2.272-1.928 2.664-2.864 3.062-5.75"/><path fill="#FEF1EE" d="M352 70c1.6 4.002.293 7.046-1 11l-3-3 2-2a126 126 0 0 0 2-6"/><path fill="#FFF3EB" d="M247 50h2c.286 7.429.286 7.429-2 11-1.286-7.429-1.286-7.429 0-11"/><path fill="#FEF0E9" d="M551 78h1c.286 7.429.286 7.429-2 11h-2z"/><path fill="#FFEEED" d="m737 77 4 5-3 2c-1.192 2.05-1.192 2.05-2 4a585 585 0 0 1-.062-4.375l-.036-2.46C736 79 736 79 737 77"/><path fill="#FEF0EA" d="M541 59h2l-4 10-2-3z"/><path fill="#FFEDE6" d="m674 50-1 2h-13v-2q2.655-.291 5.313-.562l2.988-.317C671 49 671 49 674 50"/><path fill="#FEF0EA" d="M395 73h1q.039 2.188.063 4.375l.035 2.46C396 82 396 82 395 84h-2z"/><path fill="#FEF3EA" d="m246 101 2 2c-3.512 2.408-5.727 3.366-10 3l1.75-.812c2.283-1.205 4.224-2.596 6.25-4.188"/><path fill="#FFECD7" d="m665 44 3 1h-3z"/></svg>